<svg width="9" height="16" viewBox="0 0 9 16" fill="none" xmlns="http://www.w3.org/2000/svg">
<path d="M2.84408 10.0205H1.88312C1.88312 10.0205 2.34478 8.2575 2.69474 7.144C3.12978 5.46874 3.58429 4.55969 3.58429 4.55969C4.35306 4.95448 4.66213 5.7025 4.72057 6.02716V15.9813C2.78824 16.1112 1.26628 15.5333 0.74684 15.2281H3.12978C3.26483 15.1865 3.3289 15.0592 3.34405 15.0008V14.4684L3.31143 14.3775L3.34405 14.2801V13.5074L3.13612 13.4749L2.318 13.384V12.9619C2.29722 12.8425 2.19463 12.8386 2.14918 12.8191C2.86622 11.2799 3.68818 9.55948 4.05828 9.19586C4.08425 8.91535 3.80289 8.37988 3.6687 8.11149L2.84408 10.0205Z" fill="#2392B3"/>
<path d="M3.71415 4.26749L3.5778 4.5532C4.3206 4.9376 4.65347 5.73064 4.72706 6.07911V15.9813C5.23092 15.9813 6.06246 15.7822 6.41524 15.6826C6.33213 14.5242 5.55817 11.646 5.18157 10.3517L5.3439 10.3322C5.71789 11.0075 6.38278 14.1156 6.66847 15.5852C7.3905 15.3722 8.21597 14.8774 8.53846 14.6567C8.53846 14.6567 7.759 13.1318 7.22038 12.1763C6.69273 11.2401 5.81139 9.81272 5.81139 9.81272C5.48868 9.29326 5.39368 9.0292 5.42181 8.93613L5.68803 8.22187C6.04125 7.56736 6.27458 7.33363 6.15552 6.79986C6.11029 6.59706 5.96939 6.38429 5.90879 6.33884C5.74776 6.20378 5.4348 5.86699 5.29844 5.68302C4.74784 4.90383 4.01283 4.41467 3.71415 4.26749Z" fill="#EF8E48"/>
<path d="M4.07112 3.36494C4.09709 3.53116 3.85252 4.04023 3.72699 4.27399C3.9694 4.37788 4.54122 4.71423 4.88924 5.22849C5.23727 5.74276 5.69221 6.16568 5.87618 6.31286C5.87618 6.11027 5.57317 5.70033 5.42167 5.52069C5.05806 5.19862 4.91521 4.37788 4.88924 4.00777C4.89444 3.56103 5.19874 3.39307 5.35025 3.36494C5.59438 3.40649 5.80259 3.38225 5.87618 3.36494C6.0476 3.36494 6.03418 3.11819 6.00604 2.99482L6.18135 2.84548L6.09045 2.61172L6.31771 2.42342L6.09045 2.08577C5.89826 1.87279 6.01037 1.29576 6.09045 1.03386C6.09045 0.76894 5.71818 0.655092 5.53205 0.631283C5.14247 0.189743 4.67281 0.0403983 4.48668 0.0209184C3.37507 -0.140114 3.08418 0.668079 3.07769 1.0923C2.42839 0.910493 1.99336 1.3845 1.72065 1.79357C1.44794 2.20265 1.51937 3.36494 2.53228 3.72856C3.34261 4.01945 3.89581 3.60735 4.07112 3.36494Z" fill="#6B452A"/>
<path fill-rule="evenodd" clip-rule="evenodd" d="M1.90245 10.0205C1.63407 10.7651 1.09991 12.3516 1.1103 12.7412L0.88305 12.9035V13.3385H0.136353L0 13.5463L0.136353 14.9083L0.74684 15.2281L3.38286 15.2216V13.4749L3.08418 13.3385H2.36346V12.9035L1.99336 12.7412L2.05179 11.949C2.11023 11.5854 2.24009 11.1958 2.24009 11.1958C2.36346 10.8386 2.48033 10.6244 2.59721 10.3971L2.81148 10.0205H1.90245ZM1.1103 13.0528V13.3385H2.15568V12.9814L1.90245 12.9035V13.0528H1.3051L1.21419 12.9814L1.1103 13.0528ZM0.136353 14.4878V14.2801H3.18807V14.4878H1.90245C1.90245 14.5766 1.84531 14.7489 1.61676 14.7281C1.38821 14.7073 1.31375 14.5593 1.3051 14.4878H0.136353Z" fill="#6B452A"/>
<path fill-rule="evenodd" clip-rule="evenodd" d="M4.45421 3.1117C4.75901 3.1117 5.00612 2.86459 5.00612 2.55977C5.00612 2.25495 4.75901 2.00785 4.45421 2.00785C4.14941 2.00785 3.9023 2.25495 3.9023 2.55977C3.9023 2.86459 4.14941 3.1117 4.45421 3.1117ZM4.45421 3.02079C4.65861 3.02079 4.82431 2.85509 4.82431 2.65068C4.82431 2.44627 4.65861 2.28056 4.45421 2.28056C4.24981 2.28056 4.08411 2.44627 4.08411 2.65068C4.08411 2.85509 4.24981 3.02079 4.45421 3.02079Z" fill="#EF8E48"/>
</svg>
