<svg width="9" height="16" viewBox="0 0 9 16" fill="none" xmlns="http://www.w3.org/2000/svg">
<path d="M3.69879 4.26237L3.55382 4.55533C3.61539 4.58719 3.67134 4.61536 3.72704 4.65235C4.34368 5.06182 4.60783 5.75571 4.67535 6.07546L4.69451 13.4737V15.9823C5.1986 15.9823 6.03965 15.7896 6.3926 15.69C6.30945 14.531 5.53512 11.6514 5.15835 10.3565L5.32075 10.337C5.69493 11.0126 6.36012 14.1222 6.64595 15.5925C7.36831 15.3794 8.19418 14.8844 8.51682 14.6635C8.51682 14.6635 7.73699 13.138 7.19812 12.182C6.67022 11.2454 5.78847 9.81732 5.78847 9.81732C5.46561 9.29762 5.37055 9.03344 5.3987 8.94032L5.66504 8.22573C6.01843 7.57091 6.25187 7.33707 6.13276 6.80305C6.08751 6.60016 5.94654 6.38728 5.88591 6.34181C5.72481 6.20669 5.4117 5.86975 5.27528 5.68569C4.72441 4.90613 3.99761 4.40962 3.69879 4.26237Z" fill="#4BBFCF"/>
<path d="M4.04738 3.36651C4.07336 3.53282 3.81963 4.03737 3.69404 4.27123C3.93656 4.37517 4.46176 4.77003 4.80995 5.28453C5.15814 5.79904 5.66923 6.16858 5.85329 6.31583C5.85329 6.11314 5.55014 5.70301 5.39856 5.52328C5.03478 5.20106 4.89187 4.37993 4.86588 4.00965C4.87108 3.5627 5.17553 3.39467 5.32711 3.36651C5.57136 3.40809 5.77966 3.38384 5.85329 3.36651C6.02478 3.36651 6.01136 3.11966 5.98321 2.99623L6.1586 2.84681L6.06766 2.61295L6.29502 2.42455L6.06766 2.08675C5.87537 1.87367 5.98754 1.29637 6.06766 1.03435C6.06766 0.769301 5.69522 0.655399 5.509 0.631579C5.11923 0.189832 4.64935 0.0404173 4.46313 0.0209282C3.351 -0.14018 3.05998 0.668392 3.05348 1.09282C2.40388 0.91092 1.96864 1.38515 1.6958 1.79441C1.42297 2.20368 1.49443 3.36651 2.50781 3.73031C3.31852 4.02134 3.87199 3.60904 4.04738 3.36651Z" fill="#19233C"/>
<path fill-rule="evenodd" clip-rule="evenodd" d="M4.43065 3.11316C4.7356 3.11316 4.98281 2.86594 4.98281 2.56097C4.98281 2.25601 4.7356 2.00879 4.43065 2.00879C4.1257 2.00879 3.87848 2.25601 3.87848 2.56097C3.87848 2.86594 4.1257 3.11316 4.43065 3.11316ZM4.43065 3.02221C4.63515 3.02221 4.80092 2.85643 4.80092 2.65192C4.80092 2.44742 4.63515 2.28163 4.43065 2.28163C4.22615 2.28163 4.06037 2.44742 4.06037 2.65192C4.06037 2.85643 4.22615 3.02221 4.43065 3.02221Z" fill="#4BBFCF"/>
<path fill-rule="evenodd" clip-rule="evenodd" d="M1.11082 12.7471C1.10043 12.3574 1.60657 10.7636 1.87507 10.0187H2.78452L2.57277 10.402C2.56218 10.4226 2.55158 10.4431 2.54098 10.4636C2.4346 10.6694 2.32773 10.8761 2.21549 11.201C2.21549 11.201 2.08557 11.5908 2.0271 11.9546L1.99429 12.7471L1.90334 12.9096L1.87769 13.059H1.28006L1.21476 12.9875L1.11082 12.7471Z" fill="#19233C"/>
<path d="M1.85573 10.0187L1.87507 10.0187H2.78452L2.81715 10.0187L3.64215 8.1088C3.7764 8.37731 4.0579 8.91304 4.03191 9.19368C3.66227 9.55685 2.86778 11.2728 2.15127 12.8107L2.3363 12.9031V13.3383H3.05736L3.35618 13.4747V14.3478V15.1815V15.2199V15.22C3.3561 15.22 3.356 15.22 3.35587 15.22C3.3437 15.22 3.08857 15.2169 3.08857 15.2169L0.768907 15.2338C1.35443 15.5504 2.85093 16.1062 4.69451 15.9823V13.4737L4.67535 6.07546C4.60783 5.75571 4.34368 5.06182 3.72704 4.65235C3.67325 4.61816 3.61683 4.5857 3.5577 4.55533C3.5577 4.55533 3.10297 5.46481 2.66774 7.14085C2.3176 8.25488 1.85573 10.0187 1.85573 10.0187Z" fill="#25324A"/>
<path fill-rule="evenodd" clip-rule="evenodd" d="M3.35587 15.22C3.3437 15.22 3.08857 15.2169 3.08857 15.2169L0.768907 15.2338L3.35587 15.22Z" fill="#19233C"/>
<path fill-rule="evenodd" clip-rule="evenodd" d="M0.768907 15.2338L3.08857 15.2169C3.08857 15.2169 3.3437 15.22 3.35587 15.22C3.34109 15.2199 3.35104 15.2198 3.35618 15.2199V15.1815V14.3478V13.4747L3.05736 13.3383H2.3363V12.9031L2.15127 12.8107L1.99429 12.7471L1.90334 12.9096L2.15669 12.9875V13.3448H1.11082V13.059L1.21476 12.9875L1.11082 12.7471L0.883465 12.9096V13.3448H0.136417L0 13.5527V15.2379L0.768907 15.2338ZM0.136417 14.4177V14.2868H3.18957V14.4177H1.93681C1.93681 14.5065 1.87769 14.6837 1.61752 14.6837C1.38792 14.6837 1.31437 14.4891 1.30571 14.4177H0.136417Z" fill="#ECF3F3"/>
</svg>
