<svg width="789" height="104" viewBox="0 0 789 104" fill="none" xmlns="http://www.w3.org/2000/svg">
<path d="M48.512 102.272C41.6 102.272 35.1573 101.163 29.184 98.944C23.296 96.64 18.176 93.3973 13.824 89.216C9.472 85.0347 6.05867 80.128 3.584 74.496C1.19467 68.864 0 62.6773 0 55.936C0 49.1947 1.19467 43.008 3.584 37.376C6.05867 31.744 9.472 26.8373 13.824 22.656C18.2613 18.4747 23.424 15.2747 29.312 13.056C35.2 10.752 41.6427 9.60001 48.64 9.60001C56.4053 9.60001 63.4027 10.9653 69.632 13.696C75.9467 16.3413 81.2373 20.2667 85.504 25.472L72.192 37.76C69.12 34.2613 65.7067 31.6587 61.952 29.952C58.1973 28.16 54.1013 27.264 49.664 27.264C45.4827 27.264 41.6427 27.9467 38.144 29.312C34.6453 30.6773 31.616 32.64 29.056 35.2C26.496 37.76 24.4907 40.7893 23.04 44.288C21.6747 47.7867 20.992 51.6693 20.992 55.936C20.992 60.2027 21.6747 64.0853 23.04 67.584C24.4907 71.0827 26.496 74.112 29.056 76.672C31.616 79.232 34.6453 81.1947 38.144 82.56C41.6427 83.9253 45.4827 84.608 49.664 84.608C54.1013 84.608 58.1973 83.7547 61.952 82.048C65.7067 80.256 69.12 77.568 72.192 73.984L85.504 86.272C81.2373 91.4773 75.9467 95.4453 69.632 98.176C63.4027 100.907 56.3627 102.272 48.512 102.272Z" fill="#25324A"/>
<path d="M366.349 100.736V31.872H386.317V100.736H366.349ZM376.333 22.272C372.664 22.272 369.677 21.2053 367.373 19.072C365.069 16.9387 363.917 14.2933 363.917 11.136C363.917 7.97867 365.069 5.33334 367.373 3.2C369.677 1.06667 372.664 0 376.333 0C380.002 0 382.989 1.024 385.293 3.07201C387.597 5.03467 388.749 7.59467 388.749 10.752C388.749 14.08 387.597 16.8533 385.293 19.072C383.074 21.2053 380.088 22.272 376.333 22.272Z" fill="#25324A"/>
<path d="M565.968 103.016C562.213 103.016 558.459 102.717 554.704 102.12C550.949 101.608 547.408 100.797 544.08 99.688C540.752 98.4933 537.765 97.0427 535.12 95.336C533.584 94.312 532.517 93.0747 531.92 91.624C531.323 90.1733 531.109 88.7653 531.28 87.4C531.536 85.9493 532.091 84.712 532.944 83.688C533.883 82.5787 535.035 81.896 536.4 81.64C537.765 81.384 539.259 81.768 540.88 82.792C544.635 85.0107 548.603 86.632 552.784 87.656C556.965 88.68 561.36 89.192 565.968 89.192C572.709 89.192 577.616 88.0827 580.688 85.864C583.76 83.56 585.296 80.616 585.296 77.032C585.296 74.0453 584.187 71.6987 581.968 69.992C579.835 68.2853 576.123 66.8773 570.832 65.768L556.752 62.824C548.645 61.1173 542.587 58.2587 538.576 54.248C534.651 50.152 532.688 44.776 532.688 38.12C532.688 33.9387 533.541 30.1413 535.248 26.728C536.955 23.3147 539.344 20.3707 542.416 17.896C545.573 15.4213 549.285 13.544 553.552 12.264C557.904 10.8987 562.683 10.216 567.888 10.216C573.008 10.216 577.872 10.856 582.48 12.136C587.088 13.416 591.227 15.2933 594.896 17.768C596.261 18.7067 597.157 19.8587 597.584 21.224C598.096 22.5893 598.224 23.9547 597.968 25.32C597.712 26.6 597.115 27.7093 596.176 28.648C595.237 29.5867 594.043 30.1413 592.592 30.312C591.227 30.4827 589.648 30.056 587.856 29.032C584.699 27.24 581.499 25.96 578.256 25.192C575.013 24.424 571.515 24.04 567.76 24.04C563.835 24.04 560.464 24.5947 557.648 25.704C554.832 26.8133 552.656 28.392 551.12 30.44C549.669 32.4027 548.944 34.7493 548.944 37.48C548.944 40.552 549.968 43.0267 552.016 44.904C554.064 46.696 557.563 48.104 562.512 49.128L576.464 52.072C584.912 53.864 591.184 56.68 595.28 60.52C599.461 64.36 601.552 69.48 601.552 75.88C601.552 79.976 600.699 83.688 598.992 87.016C597.371 90.344 594.981 93.2027 591.824 95.592C588.752 97.9813 585.04 99.816 580.688 101.096C576.336 102.376 571.429 103.016 565.968 103.016Z" fill="#42B7C7"/>
<path d="M642.622 103.016C636.137 103.016 630.505 101.693 625.726 99.048C620.947 96.4027 617.235 92.648 614.59 87.784C611.945 82.8347 610.622 77.032 610.622 70.376C610.622 65.3413 611.347 60.8613 612.798 56.936C614.334 52.9253 616.51 49.512 619.326 46.696C622.142 43.7947 625.513 41.6187 629.438 40.168C633.363 38.632 637.758 37.864 642.622 37.864C649.107 37.864 654.739 39.1867 659.518 41.832C664.297 44.4773 668.009 48.232 670.654 53.096C673.299 57.96 674.622 63.72 674.622 70.376C674.622 75.4107 673.854 79.9333 672.318 83.944C670.867 87.9547 668.734 91.4107 665.918 94.312C663.102 97.128 659.731 99.304 655.806 100.84C651.881 102.291 647.486 103.016 642.622 103.016ZM642.622 90.856C645.779 90.856 648.553 90.088 650.942 88.552C653.331 87.016 655.166 84.7547 656.446 81.768C657.811 78.696 658.494 74.8987 658.494 70.376C658.494 63.5493 657.043 58.472 654.142 55.144C651.241 51.7307 647.401 50.024 642.622 50.024C639.465 50.024 636.691 50.792 634.302 52.328C631.913 53.7787 630.035 56.04 628.67 59.112C627.39 62.0987 626.75 65.8533 626.75 70.376C626.75 77.1173 628.201 82.2373 631.102 85.736C634.003 89.1493 637.843 90.856 642.622 90.856Z" fill="#42B7C7"/>
<path d="M709.204 103.016C702.121 103.016 696.788 101.011 693.204 97C689.62 92.904 687.828 86.9307 687.828 79.08V18.536C687.828 15.8907 688.511 13.8853 689.876 12.52C691.241 11.1547 693.204 10.472 695.764 10.472C698.324 10.472 700.287 11.1547 701.652 12.52C703.103 13.8853 703.828 15.8907 703.828 18.536V78.312C703.828 82.2373 704.639 85.1387 706.26 87.016C707.967 88.8933 710.356 89.832 713.428 89.832C714.111 89.832 714.751 89.832 715.348 89.832C715.945 89.7467 716.543 89.6613 717.14 89.576C718.335 89.4053 719.145 89.7467 719.572 90.6C719.999 91.368 720.212 92.9893 720.212 95.464C720.212 97.5973 719.785 99.2613 718.932 100.456C718.079 101.651 716.671 102.376 714.708 102.632C713.855 102.717 712.959 102.803 712.02 102.888C711.081 102.973 710.143 103.016 709.204 103.016Z" fill="#42B7C7"/>
<path d="M756.622 103.016C750.137 103.016 744.505 101.693 739.726 99.048C734.947 96.4027 731.235 92.648 728.59 87.784C725.945 82.8347 724.622 77.032 724.622 70.376C724.622 65.3413 725.347 60.8613 726.798 56.936C728.334 52.9253 730.51 49.512 733.326 46.696C736.142 43.7947 739.513 41.6187 743.438 40.168C747.363 38.632 751.758 37.864 756.622 37.864C763.107 37.864 768.739 39.1867 773.518 41.832C778.297 44.4773 782.009 48.232 784.654 53.096C787.299 57.96 788.622 63.72 788.622 70.376C788.622 75.4107 787.854 79.9333 786.318 83.944C784.867 87.9547 782.734 91.4107 779.918 94.312C777.102 97.128 773.731 99.304 769.806 100.84C765.881 102.291 761.486 103.016 756.622 103.016ZM756.622 90.856C759.779 90.856 762.553 90.088 764.942 88.552C767.331 87.016 769.166 84.7547 770.446 81.768C771.811 78.696 772.494 74.8987 772.494 70.376C772.494 63.5493 771.043 58.472 768.142 55.144C765.241 51.7307 761.401 50.024 756.622 50.024C753.465 50.024 750.691 50.792 748.302 52.328C745.913 53.7787 744.035 56.04 742.67 59.112C741.39 62.0987 740.75 65.8533 740.75 70.376C740.75 77.1173 742.201 82.2373 745.102 85.736C748.003 89.1493 751.843 90.856 756.622 90.856Z" fill="#42B7C7"/>
<path d="M404.849 100.736V31.872H423.921V40.5C423.921 40.5 426.566 37.248 431.089 34.688C435.612 32.128 441.116 30.848 447.601 30.848V49.28C446.748 49.1947 445.98 49.152 445.297 49.152C444.614 49.0667 443.889 49.024 443.121 49.024C437.66 49.024 433.222 50.6027 429.809 53.76C426.481 56.832 424.817 61.6533 424.817 68.224V100.736H404.849Z" fill="#25324A"/>
<path fill-rule="evenodd" clip-rule="evenodd" d="M495.934 60.288C495.934 56.0213 494.611 52.6933 491.966 50.304C489.406 47.9147 485.438 46.72 480.062 46.72C476.393 46.72 472.766 47.3173 469.182 48.512C465.683 49.6213 462.697 51.1573 460.222 53.12L453.054 39.168C456.809 36.5227 461.331 34.4747 466.622 33.024C471.913 31.5733 477.289 30.848 482.75 30.848C493.246 30.848 501.395 33.3227 507.198 38.272C513.001 43.2213 515.902 50.944 515.902 61.44V100.736H495.934V94C495.934 94 494.91 96 491.07 98.304C487.23 100.608 482.281 101.76 476.222 101.76C470.846 101.76 466.238 100.864 462.398 99.072C458.558 97.1947 455.614 94.6773 453.566 91.52C451.518 88.3627 450.494 84.8213 450.494 80.896C450.494 76.8 451.475 73.216 453.438 70.144C455.486 67.072 458.686 64.6827 463.038 62.976C467.39 61.184 473.065 60.288 480.062 60.288H495.934ZM472.51 74.24C474.302 72.704 477.545 71.936 482.238 71.936L495.934 72.32V78.976C494.739 82.048 492.819 84.3947 490.174 86.016C487.529 87.552 484.542 88.32 481.214 88.32C477.715 88.32 474.942 87.5947 472.894 86.144C470.931 84.608 469.95 82.56 469.95 80C469.95 77.696 470.803 75.776 472.51 74.24Z" fill="#25324A"/>
<path fill-rule="evenodd" clip-rule="evenodd" d="M319.775 101.76C311.924 101.76 305.012 100.224 299.039 97.152C293.151 94.08 288.586 89.8987 285.343 84.608C282.1 79.232 280.479 73.1307 280.479 66.304C280.479 59.392 282.058 53.2907 285.215 48C288.458 42.624 292.852 38.4427 298.399 35.456C303.946 32.384 310.218 30.848 317.215 30.848C323.956 30.848 330.015 32.2987 335.391 35.2C340.852 38.016 345.162 42.112 348.319 47.488C351.476 52.7787 353.055 59.136 353.055 66.56C353.055 67.328 353.012 68.224 352.927 69.248C352.842 70.1867 352.756 71.0827 352.671 71.936H300.063C300.063 71.936 300.788 74.24 302.495 77.056C304.202 79.872 306.548 82.048 309.535 83.584C312.607 85.0347 316.191 85.76 320.287 85.76C323.956 85.76 327.156 85.2053 329.887 84.096C332.703 82.9867 335.263 81.3227 337.567 79.104L348.191 90.624C345.034 94.208 341.066 96.9813 336.287 98.944C331.508 100.821 326.004 101.76 319.775 101.76ZM334.249 60.288H300.337C300.669 58.1548 301.303 56.2348 302.239 54.528C303.69 51.7973 305.695 49.7067 308.255 48.256C310.9 46.72 313.93 45.952 317.343 45.952C320.756 45.952 323.743 46.72 326.303 48.256C328.863 49.7067 330.868 51.7547 332.319 54.4C333.77 57.0453 334.249 58.5 334.249 60.288Z" fill="#25324A"/>
<path d="M231.196 100.792V31.9279H250.268V40.5559C250.268 40.5559 252.913 37.3039 257.436 34.7439C261.959 32.1839 267.463 30.9039 273.948 30.9039V49.3359C273.095 49.2505 272.327 49.2079 271.644 49.2079C270.961 49.1225 270.236 49.0799 269.468 49.0799C264.007 49.0799 259.569 50.6585 256.156 53.8159C252.828 56.8879 251.164 61.7092 251.164 68.2799V100.792H231.196Z" fill="#25324A"/>
<path d="M176.748 101.816V32.9519H195.82V41.5799C195.82 41.5799 198.465 38.3279 202.988 35.7679C207.511 33.2079 213.015 31.9279 219.5 31.9279V50.3599C218.647 50.2745 217.879 50.2319 217.196 50.2319C216.513 50.1465 215.788 50.1039 215.02 50.1039C209.559 50.1039 205.121 51.6825 201.708 54.8399C198.38 57.9119 196.716 62.7332 196.716 69.3039V101.816H176.748Z" fill="#25324A"/>
<path fill-rule="evenodd" clip-rule="evenodd" d="M139.94 60.288C139.94 56.0213 138.617 52.6933 135.972 50.304C133.412 47.9147 129.444 46.72 124.068 46.72C120.399 46.72 116.772 47.3173 113.188 48.512C109.689 49.6213 106.703 51.1573 104.228 53.12L97.06 39.168C100.815 36.5227 105.337 34.4747 110.628 33.024C115.919 31.5733 121.295 30.848 126.756 30.848C137.252 30.848 145.401 33.3227 151.204 38.272C157.007 43.2213 159.908 50.944 159.908 61.44V100.736H139.94V94C139.94 94 138.916 96 135.076 98.304C131.236 100.608 126.287 101.76 120.228 101.76C114.852 101.76 110.244 100.864 106.404 99.072C102.564 97.1947 99.62 94.6773 97.572 91.52C95.524 88.3627 94.5 84.8213 94.5 80.896C94.5 76.8 95.4813 73.216 97.444 70.144C99.492 67.072 102.692 64.6827 107.044 62.976C111.396 61.184 117.071 60.288 124.068 60.288H139.94ZM116.516 74.24C118.308 72.704 121.551 71.936 126.244 71.936L139.94 72.32V78.976C138.745 82.048 136.825 84.3947 134.18 86.016C131.535 87.552 128.548 88.32 125.22 88.32C121.721 88.32 118.948 87.5947 116.9 86.144C114.937 84.608 113.956 82.56 113.956 80C113.956 77.696 114.809 75.776 116.516 74.24Z" fill="#25324A"/>
</svg>
